<svg version="1.1" xmlns="http://www.w3.org/2000/svg" xmlns:xlink="http://www.w3.org/1999/xlink" x="0px" y="0px"
	 viewBox="0 0 1300 800">
	<defs>
		<style type="text/css">

			.st0{fill:url(#the_sw_gradient_1);stroke:#FFFFFF;stroke-width:2;stroke-miterlimit:10;}
			.st1{stroke:#FFFFFF;stroke-width:2;stroke-miterlimit:10;}
			.st2{fill:url(#the_sw_gradient_2);stroke:#FFFFFF;stroke-width:2;stroke-miterlimit:10;}
			.st3{fill:#727F00;}
			.st4{fill:#FFFFFF;}
			.st5{fill:#943E00;}
			.st6{fill:#0081AA;}
			.st7{stroke:#000000;stroke-miterlimit:10;}
			.st8{font-family:'CenturyGothic';}
			.st9{font-size:37px;}
			.st10{fill:url(#the_sw_gradient_3);stroke:#FFFFFF;stroke-width:2;stroke-miterlimit:10;}
			.st11{fill:url(#the_sw_gradient_4);stroke:#FFFFFF;stroke-width:2;stroke-miterlimit:10;}
		</style>
		<g id="the_gateways">
			<g id="gateway_arrows">
				<g id="bg_arrow" style="transform: translate( 4px, 0px ) scale( 0.8 )">
					<linearGradient id="the_sw_gradient_3" gradientUnits="userSpaceOnUse" x1="495.6499" y1="376.6635" x2="1013.9739" y2="376.6635">
						<stop  offset="0" style="stop-color:#727F00"/>
						<stop  offset="1" style="stop-color:#943E00"/>
					</linearGradient>
					<polygon class="st10" points="1013.97,374.93 496.19,621.97 495.65,131.35"/>
					<path class="st1" d="M504.67,145.54l488.28,229.46L505.18,607.71L504.67,145.54 M495.65,131.35l0.54,490.62l517.78-247.04
						L495.65,131.35L495.65,131.35z"/>
					<linearGradient id="the_sw_gradient_4" gradientUnits="userSpaceOnUse" x1="140.0609" y1="376.6635" x2="664.7339" y2="376.6635"> 
						<stop  offset="0" style="stop-color:#727F00"/>
						<stop  offset="1" style="stop-color:#943E00"/>
					</linearGradient>
				</g>
				<g id="rg_arrow" style="transform: translate( -85px, 26px ) scale( 0.8 )">
					<linearGradient id="the_sw_gradient_1" gradientUnits="userSpaceOnUse" x1="579.4445" y1="605.3333" x2="1097.5564" y2="605.3333">
						<stop  offset="0" style="stop-color:#943E00"/>
						<stop  offset="1" style="stop-color:#727F00"/>
					</linearGradient>
					<polygon class="st0" points="579.44,607.06 1097.01,360.12 1097.56,850.54 			"/>
					<path class="st1" d="M1088.03,374.38l0.51,461.98L600.47,607L1088.03,374.38 M1097.01,360.12L579.44,607.06l518.11,243.48
						L1097.01,360.12L1097.01,360.12z"/>
					<linearGradient id="the_sw_gradient_2" gradientUnits="userSpaceOnUse" x1="928.5416" y1="605.3333" x2="1453" y2="605.3333">
						<stop  offset="0" style="stop-color:#943E00"/>
						<stop  offset="1" style="stop-color:#727F00"/>
					</linearGradient>
				</g>
			</g>
			<g id="researchers_gateway" style="transform: translate( -85px, 26px ) scale( 0.8 )">
				<g id="rg_ring_8">
					<circle class="st2" cx="1190.77" cy="605.33" r="262.23"/>
					<path class="st1" d="M1190.77,352.1c34.19,0,67.35,6.69,98.57,19.9c30.15,12.75,57.24,31.01,80.49,54.27
						c23.26,23.26,41.52,50.34,54.27,80.49c13.2,31.21,19.9,64.38,19.9,98.57c0,34.19-6.69,67.35-19.9,98.57
						c-12.75,30.15-31.01,57.24-54.27,80.49c-23.26,23.26-50.34,41.52-80.49,54.27c-31.21,13.2-64.38,19.9-98.57,19.9
						s-67.35-6.69-98.57-19.9c-30.15-12.75-57.24-31.01-80.49-54.27c-23.26-23.26-41.52-50.34-54.27-80.49
						c-13.2-31.21-19.9-64.38-19.9-98.57c0-34.19,6.69-67.35,19.9-98.57c12.75-30.15,31.01-57.24,54.27-80.49
						c23.26-23.26,50.34-41.52,80.49-54.27C1123.42,358.8,1156.58,352.1,1190.77,352.1 M1190.77,343.1
						c-144.83,0-262.23,117.4-262.23,262.23s117.4,262.23,262.23,262.23S1453,750.16,1453,605.33S1335.6,343.1,1190.77,343.1
						L1190.77,343.1z"/>
				</g>
				<g id="rg_ring_7">
					<path class="st3" d="M1191.2,348.75l0.04,0c68.46,0,132.83,26.6,181.32,74.9L1191.2,605.01V348.75z"/>
					<path d="M1191.7,349.25c34.45,0.06,67.88,6.84,99.35,20.15c30.23,12.79,57.41,31.03,80.8,54.25L1191.7,603.8L1191.7,349.25
						 M1191.24,348.25c-0.18,0-0.36,0.01-0.54,0.01l0,257.95l182.56-182.56C1326.68,377.07,1262.33,348.25,1191.24,348.25
						L1191.24,348.25z"/>
					<path class="st3" d="M1009.39,424.19c48.29-48.39,112.47-75.16,180.81-75.43v256.25L1009.39,424.19z"/>
					<path d="M1189.7,349.26V603.8L1010.1,424.19c23.35-23.31,50.51-41.66,80.75-54.54C1122.15,356.32,1155.41,349.46,1189.7,349.26
						 M1190.7,348.26c-71.15,0.15-135.51,29.15-182.02,75.93l182.02,182.02V348.26L1190.7,348.26z"/>
					<path class="st3" d="M1191.91,606.71h256.25c-0.27,68.35-27.04,132.53-75.43,180.81L1191.91,606.71z"/>
					<path d="M1447.65,607.21c-0.2,34.29-7.06,67.55-20.39,98.86c-12.88,30.24-31.22,57.4-54.54,80.75l-179.61-179.61L1447.65,607.21
						 M1448.66,606.21l-257.95,0l182.02,182.02C1419.5,741.72,1448.51,677.36,1448.66,606.21L1448.66,606.21z"/>
					<path class="st3" d="M934.32,605.71v-0.04c0-68.17,26.41-132.35,74.37-180.77l180.81,180.81H934.32z"/>
					<path d="M1008.69,425.61l179.6,179.6l-253.47,0c0.06-34.32,6.79-67.62,20-98.99C967.51,476.09,985.63,448.98,1008.69,425.61
						 M1008.68,424.19c-46.27,46.54-74.87,110.67-74.87,181.48c0,0.18,0.01,0.36,0.01,0.54l256.88,0L1008.68,424.19L1008.68,424.19z"
						/>
					<path class="st3" d="M1191.91,605.71l181.36-181.36c48.3,48.49,74.9,112.86,74.9,181.32l0,0.04H1191.91z"/>
					<path d="M1373.26,425.07c23.21,23.39,41.46,50.57,54.25,80.8c13.31,31.47,20.09,64.89,20.15,99.35l-254.55,0L1373.26,425.07
						 M1373.27,423.65L1190.7,606.21l257.95,0c0-0.18,0.01-0.36,0.01-0.54C1448.66,534.59,1419.85,470.23,1373.27,423.65
						L1373.27,423.65z"/>
					<path class="st3" d="M1191.2,862.6V607.42l180.81,180.81c-48.43,47.96-112.61,74.37-180.77,74.37L1191.2,862.6z"/>
					<path d="M1191.7,608.63l179.6,179.6c-23.37,23.06-50.48,41.18-80.61,53.87c-31.37,13.21-64.67,19.94-98.99,20L1191.7,608.63
						 M1190.7,606.21l0,256.88c0.18,0,0.36,0.01,0.54,0.01c70.81,0,134.94-28.6,181.48-74.87L1190.7,606.21L1190.7,606.21z"/>
					<path class="st3" d="M1009.21,786.99c-48.04-48.22-74.62-112.21-74.89-180.28h255.17L1009.21,786.99z"/>
					<path d="M934.83,607.21l253.46,0l-179.07,179.07c-23.15-23.33-41.37-50.43-54.15-80.57
						C941.84,674.51,935.03,641.37,934.83,607.21 M933.82,606.21c0.15,70.87,28.92,135.02,75.39,181.49l181.49-181.49L933.82,606.21
						L933.82,606.21z"/>
					<path class="st3" d="M1190.2,862.59c-68.07-0.27-132.06-26.85-180.28-74.89l180.28-180.28V862.59z"/>
					<path d="M1189.7,608.63v253.46c-34.16-0.2-67.3-7.01-98.51-20.24c-30.14-12.78-57.24-30.99-80.57-54.15L1189.7,608.63
						 M1190.7,606.21L1009.21,787.7c46.47,46.47,110.62,75.25,181.49,75.39V606.21L1190.7,606.21z"/>
				</g>
				<g id="rg_ring_6">
					<path class="st4" d="M1191.24,364.84c64.17,0,124.49,24.92,169.94,70.19l-169.95,169.95L1191.24,364.84z"/>
					<path d="M1191.74,365.34c32.27,0.06,63.58,6.42,93.05,18.89c28.31,11.98,53.77,29.06,75.68,50.8l-168.74,168.74L1191.74,365.34
						 M1191.24,364.34c-0.17,0-0.34,0.01-0.5,0.01l0,241.83l171.15-171.15C1318.22,391.35,1257.88,364.34,1191.24,364.34
						L1191.24,364.34z"/>
					<path class="st4" d="M1020.8,435.54c45.26-45.34,105.39-70.43,169.44-70.69l0,240.12L1020.8,435.54z"/>
					<path d="M1189.74,365.35v238.41l-168.23-168.23c21.88-21.83,47.32-39.01,75.64-51.07
						C1126.47,371.98,1157.62,365.55,1189.74,365.35 M1190.74,364.35c-66.7,0.14-127.04,27.33-170.64,71.19l170.64,170.64V364.35
						L1190.74,364.35z"/>
					<path class="st4" d="M1191.94,606.68h240.12c-0.26,64.05-25.34,124.18-70.69,169.44L1191.94,606.68z"/>
					<path d="M1431.56,607.18c-0.2,32.12-6.63,63.27-19.11,92.59c-12.06,28.32-29.24,53.76-51.07,75.64l-168.23-168.23L1431.56,607.18
						 M1432.57,606.18l-241.83,0l170.64,170.64C1405.24,733.22,1432.43,672.88,1432.57,606.18L1432.57,606.18z"/>
					<path class="st4" d="M950.41,605.68L950.41,605.68c0-63.89,24.75-124.04,69.69-169.43l169.43,169.43H950.41z"/>
					<path d="M1020.1,436.95l168.23,168.23l-237.42,0c0.06-32.14,6.37-63.34,18.75-92.72C981.54,484.24,998.51,458.85,1020.1,436.95
						 M1020.09,435.54c-43.38,43.63-70.19,103.75-70.19,170.14c0,0.17,0.01,0.34,0.01,0.5l240.82,0L1020.09,435.54L1020.09,435.54z"/>
					<path class="st4" d="M1191.94,605.68l169.95-169.95c45.27,45.45,70.19,105.78,70.19,169.94v0H1191.94z"/>
					<path d="M1361.89,436.44c21.74,21.91,38.82,47.37,50.8,75.68c12.47,29.48,18.82,60.78,18.89,93.05l-238.42,0L1361.89,436.44
						 M1361.89,435.03l-171.15,171.15l241.83,0c0-0.17,0.01-0.34,0.01-0.5C1432.57,539.03,1405.56,478.7,1361.89,435.03
						L1361.89,435.03z"/>
					<path class="st4" d="M1191.24,607.39l169.43,169.43c-45.39,44.94-105.54,69.69-169.43,69.69L1191.24,607.39z"/>
					<path d="M1191.74,608.59l168.23,168.23c-21.89,21.59-47.29,38.56-75.51,50.44c-29.38,12.38-60.57,18.68-92.72,18.75
						L1191.74,608.59 M1190.74,606.18l0,240.82c0.17,0,0.34,0.01,0.5,0.01c66.39,0,126.51-26.81,170.14-70.19L1190.74,606.18
						L1190.74,606.18z"/>
					<path class="st4" d="M1020.59,775.62c-45.01-45.19-69.92-105.16-70.18-168.94h239.11L1020.59,775.62z"/>
					<path d="M950.92,607.18l237.41,0l-167.73,167.73c-21.68-21.85-38.73-47.24-50.71-75.47
						C957.49,670.21,951.11,639.18,950.92,607.18 M949.91,606.18c0.14,66.44,27.12,126.58,70.68,170.15l170.15-170.15L949.91,606.18
						L949.91,606.18z"/>
					<path class="st4" d="M1190.24,846.5c-63.78-0.26-123.75-25.17-168.94-70.18l168.94-168.94L1190.24,846.5z"/>
					<path d="M1189.74,608.59V846c-32-0.19-63.03-6.58-92.26-18.97c-28.23-11.97-53.61-29.03-75.47-50.71L1189.74,608.59
						 M1190.74,606.18l-170.15,170.15c43.56,43.56,103.7,70.54,170.15,70.68V606.18L1190.74,606.18z"/>
				</g>
				<g id="rg_ring_5">
					<path class="st4" d="M1191.32,406.67c52.96,0.02,102.75,20.59,140.28,57.93l-140.28,140.28V406.67z"/>
					<path d="M1191.82,407.17c26.59,0.08,52.39,5.32,76.68,15.6c23.33,9.87,44.32,23.94,62.39,41.84l-139.07,139.07V407.17
						 M1191.24,406.17c-0.14,0-0.28,0-0.42,0.01v199.91l141.49-141.49C1296.21,428.5,1246.33,406.17,1191.24,406.17L1191.24,406.17z"
						/>
					<path class="st4" d="M1050.46,465.03c37.37-37.41,87-58.11,139.86-58.35v198.21L1050.46,465.03z"/>
					<path d="M1189.82,407.18l0,196.5l-138.65-138.65c18.04-17.97,39.01-32.12,62.35-42.06
						C1137.69,412.67,1163.35,407.37,1189.82,407.18 M1190.82,406.18c-55.14,0.11-105.02,22.59-141.07,58.85l141.06,141.06
						L1190.82,406.18L1190.82,406.18z"/>
					<path class="st4" d="M1192.03,606.59h198.21c-0.24,52.86-20.94,102.49-58.35,139.86L1192.03,606.59z"/>
					<path d="M1389.73,607.09c-0.18,26.47-5.49,52.13-15.79,76.3c-9.94,23.34-24.09,44.31-42.06,62.35l-138.65-138.65L1389.73,607.09
						 M1390.74,606.09l-199.91,0l141.06,141.07C1368.14,711.11,1390.62,661.23,1390.74,606.09L1390.74,606.09z"/>
					<path class="st4" d="M992.24,605.59c0.02-52.73,20.45-102.38,57.52-139.86l139.86,139.86H992.24z"/>
					<path d="M1049.76,466.44l138.65,138.65l-195.67,0c0.08-26.49,5.28-52.19,15.48-76.41
						C1018.02,505.43,1031.99,484.5,1049.76,466.44 M1049.76,465.03c-35.86,36.07-58.02,85.77-58.02,140.65c0,0.14,0,0.28,0.01,0.42
						l199.08,0L1049.76,465.03L1049.76,465.03z"/>
					<path class="st4" d="M1192.03,605.59l140.28-140.28c37.34,37.52,57.91,87.32,57.93,140.28H1192.03z"/>
					<path d="M1332.31,466.02c17.89,18.07,31.97,39.06,41.84,62.39c10.28,24.29,15.52,50.09,15.6,76.68l-196.5,0L1332.31,466.02
						 M1332.31,464.61l-141.49,141.49l199.91,0c0-0.14,0.01-0.28,0.01-0.42C1390.74,550.58,1368.41,500.71,1332.31,464.61
						L1332.31,464.61z"/>
					<path class="st4" d="M1191.32,607.3l139.86,139.86c-37.48,37.08-87.13,57.5-139.86,57.52V607.3z"/>
					<path d="M1191.82,608.51l138.65,138.65c-18.05,17.77-38.99,31.74-62.24,41.54c-24.22,10.2-49.92,15.41-76.41,15.48V608.51
						 M1190.82,606.09v199.08c0.14,0,0.28,0.01,0.42,0.01c54.88,0,104.58-22.16,140.65-58.02L1190.82,606.09L1190.82,606.09z"/>
					<path class="st4" d="M1050.17,746.04c-37.13-37.31-57.69-86.8-57.93-139.45h197.37L1050.17,746.04z"/>
					<path d="M992.75,607.09l195.66,0l-138.24,138.24c-17.85-18.02-31.89-38.95-41.76-62.21C998.2,659.03,992.93,633.46,992.75,607.09
						 M991.74,606.09c0.11,54.93,22.42,104.64,58.43,140.65l140.65-140.65L991.74,606.09L991.74,606.09z"/>
					<path class="st4" d="M1190.32,804.67c-52.64-0.24-102.13-20.79-139.45-57.93l139.45-139.45V804.67z"/>
					<path d="M1189.82,608.51l0,195.66c-26.37-0.18-51.94-5.45-76.03-15.67c-23.26-9.86-44.19-23.91-62.21-41.76L1189.82,608.51
						 M1190.82,606.09l-140.65,140.65c36.01,36.01,85.73,58.32,140.65,58.43L1190.82,606.09L1190.82,606.09z"/>
				</g>
				<g id="rg_ring_4">
					<path class="st5" d="M1191.25,372.89c62.01,0,120.32,24.09,164.24,67.83l-164.24,164.24V372.89z"/>
					<path d="M1191.75,373.39c31.18,0.07,61.42,6.21,89.9,18.25c27.36,11.57,51.95,28.08,73.13,49.08l-163.03,163.03V373.39
						 M1191.24,372.39c-0.16,0-0.32,0.01-0.49,0.01v233.77l165.45-165.45C1313.98,398.5,1255.66,372.39,1191.24,372.39L1191.24,372.39
						z"/>
					<path class="st5" d="M1026.5,441.21c43.74-43.81,101.85-68.06,163.75-68.31v232.06L1026.5,441.21z"/>
					<path d="M1189.75,373.4l0,230.35l-162.54-162.54c21.14-21.09,45.72-37.68,73.08-49.34
							C1128.63,379.8,1158.72,373.59,1189.75,373.4 M1190.75,372.39c-64.48,0.13-122.81,26.42-164.96,68.82l164.95,164.95
							L1190.75,372.39L1190.75,372.39z"/>
					<path class="st5" d="M1191.96,606.66h232.06c-0.26,61.89-24.5,120.01-68.31,163.75L1191.96,606.66z"/>
					<path d="M1423.52,607.16c-0.19,31.03-6.41,61.13-18.47,89.46c-11.65,27.36-28.25,51.94-49.34,73.08l-162.54-162.54
						L1423.52,607.16 M1424.52,606.16l-233.77,0l164.95,164.96C1398.1,728.97,1424.39,670.64,1424.52,606.16L1424.52,606.16z"/>
					<path class="st5" d="M958.45,605.66c0-61.75,23.92-119.88,67.35-163.75l163.75,163.75H958.45z"/>
					<path d="M1025.8,442.63l162.54,162.54l-229.39,0c0.07-31.06,6.16-61.19,18.12-89.58C988.56,488.32,1004.95,463.78,1025.8,442.63
						 M1025.8,441.21c-41.93,42.18-67.85,100.29-67.85,164.47c0,0.16,0.01,0.32,0.01,0.49l232.8,0L1025.8,441.21L1025.8,441.21z"/>
					<path class="st5" d="M1191.96,605.66l164.24-164.24c43.74,43.92,67.83,102.23,67.83,164.24H1191.96z"/>
					<path d="M1356.2,442.13c21,21.17,37.51,45.77,49.08,73.13c12.05,28.48,18.19,58.73,18.25,89.9l-230.36,0L1356.2,442.13
						 M1356.2,440.71l-165.45,165.45l233.77,0c0-0.16,0.01-0.32,0.01-0.49C1424.53,541.25,1398.42,482.93,1356.2,440.71L1356.2,440.71
						z"/>
					<path class="st5" d="M1191.25,607.37L1355,771.12c-43.87,43.43-102,67.35-163.75,67.35V607.37z"/>
					<path d="M1191.75,608.58l162.54,162.54c-21.15,20.85-45.69,37.25-72.96,48.73c-28.39,11.96-58.53,18.05-89.58,18.12V608.58
						 M1190.75,606.16v232.8c0.16,0,0.32,0.01,0.49,0.01c64.17,0,122.29-25.92,164.47-67.85L1190.75,606.16L1190.75,606.16z"/>
					<path class="st5" d="M1026.28,769.93c-43.5-43.68-67.57-101.62-67.82-163.27h231.09L1026.28,769.93z"/>
					<path d="M958.96,607.16l229.38,0l-162.06,162.06c-20.94-21.12-37.42-45.65-48.98-72.92
						C965.32,668.06,959.15,638.08,958.96,607.16 M957.96,606.16c0.13,64.23,26.21,122.36,68.32,164.47l164.47-164.47L957.96,606.16
						L957.96,606.16z"/>
					<path class="st5" d="M1190.25,838.46c-61.64-0.25-119.59-24.33-163.27-67.82l163.27-163.27V838.46z"/>
					<path d="M1189.75,608.58l0,229.38c-30.91-0.19-60.9-6.36-89.14-18.34c-27.27-11.57-51.8-28.04-72.92-48.98L1189.75,608.58
						 M1190.75,606.16l-164.47,164.47c42.11,42.11,100.25,68.19,164.47,68.32L1190.75,606.16L1190.75,606.16z"/>
				</g>
				<g id="rg_ring_3">
					<path class="st4" d="M1191.34,413.11c51.24,0.02,99.41,19.92,135.71,56.05l-135.71,135.71V413.11z"/>
					<path d="M1191.84,413.61c25.72,0.08,50.67,5.15,74.16,15.09c22.57,9.54,42.86,23.15,60.34,40.46l-134.51,134.51V413.61
						 M1191.24,412.61c-0.13,0-0.27,0-0.4,0.01v193.47l136.92-136.92C1292.82,434.22,1244.55,412.61,1191.24,412.61L1191.24,412.61z"
						/>
					<path class="st4" d="M1055.03,469.56c36.15-36.18,84.17-56.21,135.31-56.45v191.76L1055.03,469.56z"/>
					<path d="M1189.84,413.62l0,190.05l-134.1-134.1c17.45-17.38,37.74-31.06,60.31-40.67
						C1139.42,418.94,1164.24,413.8,1189.84,413.62 M1190.84,412.61c-53.36,0.11-101.63,21.86-136.51,56.95l136.51,136.51
						L1190.84,412.61L1190.84,412.61z"/>
					<path class="st4" d="M1192.04,606.58h191.76c-0.23,51.14-20.26,99.16-56.45,135.31L1192.04,606.58z"/>
					<path d="M1383.3,607.08c-0.18,25.6-5.32,50.42-15.27,73.79c-9.61,22.57-23.29,42.85-40.67,60.31l-134.1-134.1L1383.3,607.08
						 M1384.3,606.08l-193.47,0l136.51,136.51C1362.44,707.71,1384.19,659.44,1384.3,606.08L1384.3,606.08z"/>
					<path class="st4" d="M998.67,605.58c0.02-51.02,19.78-99.04,55.65-135.31l135.31,135.31H998.67z"/>
					<path d="M1054.33,470.98l134.1,134.1l-189.25,0C999.33,554.55,1018.89,506.99,1054.33,470.98 M1054.32,469.56
						c-34.7,34.91-56.15,83-56.15,136.11c0,0.13,0,0.27,0.01,0.4l192.66,0L1054.32,469.56L1054.32,469.56z"/>
					<path class="st4" d="M1192.04,605.58l135.71-135.71c36.13,36.31,56.02,84.48,56.05,135.71H1192.04z"/>
					<path d="M1327.76,470.57c17.3,17.48,30.91,37.78,40.46,60.34c9.94,23.5,15.01,48.45,15.09,74.16l-190.06,0L1327.76,470.57
						 M1327.76,469.16l-136.92,136.92l193.47,0c0-0.13,0.01-0.27,0.01-0.4C1384.31,552.36,1362.7,504.09,1327.76,469.16
						L1327.76,469.16z"/>
					<path class="st4" d="M1191.34,607.29l135.31,135.31c-36.26,35.87-84.29,55.63-135.31,55.65V607.29z"/>
					<path d="M1191.84,608.49l134.1,134.1c-36.01,35.44-83.57,55-134.1,55.15V608.49 M1190.84,606.08v192.66
						c0.13,0,0.27,0.01,0.4,0.01c53.11,0,101.21-21.45,136.11-56.15L1190.84,606.08L1190.84,606.08z"/>
					<path class="st4" d="M1054.72,741.49c-35.92-36.1-55.81-83.97-56.04-134.91h190.95L1054.72,741.49z"/>
					<path d="M999.18,607.08l189.24,0l-133.7,133.7c-17.26-17.43-30.84-37.67-40.38-60.17C1004.46,657.31,999.36,632.58,999.18,607.08
						 M998.18,606.08c0.11,53.15,21.69,101.27,56.54,136.12l136.12-136.12L998.18,606.08L998.18,606.08z"/>
					<path class="st4" d="M1190.34,798.24c-50.93-0.23-98.8-20.12-134.91-56.04l134.91-134.91V798.24z"/>
					<path d="M1189.84,608.49l0,189.24c-25.5-0.18-50.23-5.28-73.53-15.16c-22.5-9.54-42.74-23.12-60.17-40.38L1189.84,608.49
						 M1190.84,606.08l-136.12,136.12c34.85,34.85,82.96,56.43,136.12,56.54L1190.84,606.08L1190.84,606.08z"/>
				</g>
				<g id="rg_ring_2">
					<path class="st6" d="M1191.47,477.46c33.99,0.06,65.95,13.26,90.07,37.2l-90.07,90.07V477.46z"/>
					<path d="M1191.97,477.97c33.51,0.19,65,13.19,88.86,36.7l-88.86,88.86L1191.97,477.97 M1191.24,476.96c-0.09,0-0.18,0-0.27,0
						l0,128.98l91.28-91.28C1258.96,491.37,1226.78,476.96,1191.24,476.96L1191.24,476.96z"/>
					<path class="st6" d="M1100.67,514.93c24.02-23.98,55.87-37.27,89.8-37.47v127.27L1100.67,514.93z"/>
					<path d="M1189.97,477.97v125.56l-88.59-88.59C1125.14,491.39,1156.53,478.3,1189.97,477.97 M1190.97,476.97
						c-35.57,0.07-67.76,14.58-91.01,37.97l91.01,91.01V476.97L1190.97,476.97z"/>
						<path class="st6" d="M1192.18,606.44h127.27c-0.2,33.93-13.49,65.79-37.47,89.8L1192.18,606.44z"/>
						<path d="M1318.94,606.94c-0.32,33.44-13.42,64.83-36.96,88.59l-88.59-88.59H1318.94 M1319.95,605.94h-128.98l91.01,91.01
							C1305.37,673.7,1319.88,641.52,1319.95,605.94L1319.95,605.94z"/>
					<path class="st6" d="M1063.03,605.44c0.06-33.85,13.17-65.71,36.93-89.8l89.8,89.8H1063.03z"/>
					<path d="M1099.97,516.35l88.59,88.59l-125.03,0C1063.72,571.58,1076.63,540.19,1099.97,516.35 M1099.96,514.93
						c-23.13,23.27-37.43,55.33-37.43,90.74c0,0.09,0,0.18,0,0.27l128.44,0L1099.96,514.93L1099.96,514.93z"/>
					<path class="st6" d="M1192.18,605.44l90.07-90.07c23.94,24.12,37.14,56.08,37.2,90.07H1192.18z"/>
					<path d="M1282.25,516.08c23.51,23.87,36.51,55.36,36.7,88.86l-125.56,0L1282.25,516.08 M1282.25,514.66l-91.28,91.28l128.98,0
						c0-0.09,0-0.18,0-0.27C1319.95,570.13,1305.54,537.95,1282.25,514.66L1282.25,514.66z"/>
					<path class="st6" d="M1191.47,607.15l89.8,89.8c-24.09,23.77-55.95,36.88-89.8,36.93V607.15z"/>
					<path d="M1191.97,608.36l88.59,88.59c-23.83,23.34-55.23,36.25-88.59,36.44L1191.97,608.36 M1190.97,605.94l0,128.44
						c0.09,0,0.18,0,0.27,0c35.41,0,67.47-14.3,90.74-37.43L1190.97,605.94L1190.97,605.94z"/>
					<path class="st6" d="M1100.23,695.98c-23.8-23.98-37-55.74-37.19-89.54h126.73L1100.23,695.98z"/>
					<path d="M1188.56,606.94l-88.33,88.33c-23.37-23.73-36.37-55.02-36.69-88.33H1188.56 M1190.97,605.94h-128.44
						c0.07,35.44,14.46,67.51,37.7,90.74L1190.97,605.94L1190.97,605.94z"/>
					<path class="st6" d="M1190.47,733.88c-33.79-0.2-65.55-13.39-89.54-37.19l89.54-89.54V733.88z"/>
					<path d="M1189.97,608.36v125.02c-33.3-0.32-64.6-13.32-88.33-36.69L1189.97,608.36 M1190.97,605.94l-90.74,90.74
						c23.23,23.23,55.31,37.62,90.74,37.7V605.94L1190.97,605.94z"/>
				</g>
				<g id="rg_ring_1">
					<path class="st4" d="M1191.49,487.15c31.4,0.06,60.91,12.26,83.2,34.36l-83.2,83.2V487.15z"/>
					<path d="M1191.99,487.66c30.91,0.19,59.96,12.19,81.99,33.86l-81.99,81.99V487.66 M1191.24,486.65c-0.08,0-0.17,0-0.25,0v119.27
						l84.41-84.41C1253.86,499.98,1224.11,486.65,1191.24,486.65L1191.24,486.65z"/>
					<path class="st4" d="M1107.54,521.77c22.19-22.14,51.61-34.41,82.95-34.61v117.56L1107.54,521.77z"/>
					<path d="M1189.99,487.66v115.85l-81.74-81.74C1130.18,500.06,1159.14,487.98,1189.99,487.66 M1190.99,486.66
						c-32.89,0.07-62.65,13.48-84.16,35.11l84.16,84.16V486.66L1190.99,486.66z"/>
					<path class="st4" d="M1192.2,606.42h117.56c-0.19,31.34-12.47,60.76-34.61,82.95L1192.2,606.42z"/>
					<path d="M1309.25,606.92c-0.32,30.85-12.4,59.81-34.1,81.74l-81.74-81.74L1309.25,606.92 M1310.26,605.92l-119.27,0l84.16,84.16
						C1296.78,668.58,1310.19,638.82,1310.26,605.92L1310.26,605.92z"/>
					<path class="st4" d="M1072.72,605.42c0.06-31.26,12.17-60.69,34.12-82.95l82.95,82.95H1072.72z"/>
					<path d="M1106.84,523.19l81.74,81.74h-115.36C1073.41,574.15,1085.33,545.19,1106.84,523.19 M1106.83,521.77
						c-21.39,21.52-34.61,51.17-34.61,83.91c0,0.08,0,0.17,0,0.25h118.77L1106.83,521.77L1106.83,521.77z"/>
					<path class="st4" d="M1192.2,605.42l83.2-83.2c22.1,22.29,34.3,51.8,34.36,83.2H1192.2z"/>
					<path d="M1275.4,522.93c21.67,22.03,33.67,51.08,33.86,81.99h-115.85L1275.4,522.93 M1275.4,521.51l-84.41,84.41h119.27
						c0-0.08,0-0.17,0-0.25C1310.26,572.81,1296.94,543.05,1275.4,521.51L1275.4,521.51z"/>
					<path class="st4" d="M1191.49,607.13l82.95,82.95c-22.26,21.95-51.69,34.05-82.95,34.12V607.13z"/>
					<path d="M1191.99,608.34l81.74,81.74c-22,21.51-50.96,33.43-81.74,33.62V608.34 M1190.99,605.92v118.77c0.08,0,0.17,0,0.25,0
						c32.74,0,62.39-13.22,83.91-34.61L1190.99,605.92L1190.99,605.92z"/>
					<path class="st4" d="M1107.08,689.13c-21.98-22.16-34.16-51.5-34.36-82.7h117.06L1107.08,689.13z"/>
					<path d="M1073.23,606.92l115.35,0l-81.49,81.49C1085.54,666.51,1073.55,637.65,1073.23,606.92 M1072.22,605.92
						c0.07,32.77,13.37,62.43,34.86,83.91l83.91-83.91L1072.22,605.92L1072.22,605.92z"/>
					<path class="st4" d="M1190.49,724.19c-31.21-0.19-60.54-12.38-82.7-34.36l82.7-82.7V724.19z"/>
					<path d="M1189.99,608.34v115.35c-30.72-0.32-59.59-12.31-81.49-33.85L1189.99,608.34 M1190.99,605.92l-83.91,83.91
						c21.48,21.48,51.14,34.79,83.91,34.86V605.92L1190.99,605.92z"/>
				</g>
				<circle id="rg_center" class="st7" cx="1191.24" cy="605.68" r="99.75"/>
				<text transform="matrix(1 0 0 1 1099.9097 617.894)" class="st4 st8 st9">R</text>
				<text transform="matrix(0.7 0 0 0.7 1123.2915 617.894)" class="st4 st8 st9">esearchers</text>
			</g>

			<g id="builders_gateway" style="transform: translate( 0, 0px ) scale( 0.8 )">
				<g id="bg_ring_8">
					<circle class="st11" cx="402.4" cy="376.66" r="262.34"/>
					<path class="st1" d="M402.4,123.33c34.2,0,67.38,6.7,98.61,19.9c30.17,12.76,57.26,31.03,80.53,54.3s41.54,50.36,54.3,80.53
						c13.21,31.23,19.9,64.4,19.9,98.61s-6.7,67.38-19.9,98.61c-12.76,30.17-31.03,57.26-54.3,80.53
						c-23.27,23.27-50.36,41.54-80.53,54.3C469.78,623.3,436.6,630,402.4,630s-67.38-6.7-98.61-19.9
						c-30.17-12.76-57.26-31.03-80.53-54.3c-23.27-23.27-41.54-50.36-54.3-80.53c-13.21-31.23-19.9-64.4-19.9-98.61
						s6.7-67.38,19.9-98.61c12.76-30.17,31.03-57.26,54.3-80.53s50.36-41.54,80.53-54.3C335.02,130.02,368.19,123.33,402.4,123.33
						 M402.4,114.33c-144.88,0-262.34,117.45-262.34,262.34S257.51,639,402.4,639s262.34-117.45,262.34-262.34
						S547.28,114.33,402.4,114.33L402.4,114.33z"/>
				</g>
				<g id="bg_ring_7">
					<path class="st5" d="M401.91,119.74l0.04,0c68.46,0,132.83,26.6,181.32,74.9L401.91,375.99V119.74z"/>
					<path d="M402.41,120.24c34.45,0.06,67.88,6.84,99.35,20.15c30.23,12.79,57.41,31.03,80.8,54.25L402.41,374.79L402.41,120.24
						 M401.95,119.24c-0.18,0-0.36,0.01-0.54,0.01l0,257.95l182.56-182.56C537.39,148.05,473.04,119.24,401.95,119.24L401.95,119.24z"
						/>
					<path class="st5" d="M220.1,195.18c48.29-48.39,112.47-75.16,180.81-75.43v256.25L220.1,195.18z"/>
					<path d="M400.41,120.25l0,254.54L220.81,195.18c23.35-23.31,50.51-41.66,80.75-54.54C332.86,127.31,366.12,120.45,400.41,120.25
						 M401.41,119.25c-71.15,0.15-135.51,29.15-182.02,75.93L401.41,377.2L401.41,119.25L401.41,119.25z"/>
					<path class="st5" d="M402.62,377.7l256.25,0c-0.27,68.35-27.04,132.53-75.43,180.81L402.62,377.7z"/>
					<path d="M658.36,378.2c-0.2,34.29-7.06,67.55-20.39,98.86c-12.88,30.24-31.22,57.4-54.54,80.75L403.83,378.2L658.36,378.2
						 M659.37,377.2l-257.95,0l182.02,182.02C630.21,512.71,659.22,448.35,659.37,377.2L659.37,377.2z"/>
					<path class="st5" d="M145.03,376.7l0-0.04c0-68.17,26.41-132.35,74.37-180.77L400.21,376.7H145.03z"/>
					<path d="M219.4,196.6L399,376.2l-253.47,0c0.06-34.32,6.79-67.62,20-98.99C178.22,247.08,196.34,219.97,219.4,196.6
						 M219.39,195.18c-46.27,46.54-74.87,110.67-74.87,181.48c0,0.18,0.01,0.36,0.01,0.54l256.88,0L219.39,195.18L219.39,195.18z"/>
					<path class="st5" d="M402.62,376.7l181.36-181.36c48.3,48.49,74.9,112.86,74.9,181.32l0,0.04H402.62z"/>
					<path d="M583.97,196.05c23.21,23.39,41.46,50.57,54.25,80.8c13.31,31.47,20.09,64.89,20.15,99.35l-254.55,0L583.97,196.05
						 M583.98,194.64L401.41,377.2l257.95,0c0-0.18,0.01-0.36,0.01-0.54C659.37,305.58,630.56,241.22,583.98,194.64L583.98,194.64z"/>
					<path class="st5" d="M401.91,633.59V378.41l180.81,180.81c-48.43,47.96-112.61,74.37-180.77,74.37L401.91,633.59z"/>
					<path d="M402.41,379.62l179.6,179.6c-23.37,23.06-50.48,41.18-80.61,53.87c-31.37,13.21-64.67,19.94-98.99,20L402.41,379.62
						 M401.41,377.2l0,256.88c0.18,0,0.36,0.01,0.54,0.01c70.81,0,134.94-28.6,181.48-74.87L401.41,377.2L401.41,377.2z"/>
					<path class="st5" d="M219.92,557.98c-48.04-48.22-74.62-112.21-74.89-180.28l255.17,0L219.92,557.98z"/>
					<path d="M145.54,378.2l253.46,0L219.93,557.27c-23.15-23.33-41.37-50.43-54.15-80.57C152.55,445.5,145.74,412.36,145.54,378.2
						 M144.53,377.2c0.15,70.87,28.92,135.02,75.39,181.49L401.41,377.2L144.53,377.2L144.53,377.2z"/>
					<path class="st5" d="M400.91,633.58c-68.07-0.27-132.06-26.85-180.28-74.89l180.28-180.28V633.58z"/>
					<path d="M400.41,379.62l0,253.46c-34.16-0.2-67.3-7.01-98.51-20.24c-30.14-12.78-57.24-30.99-80.57-54.15L400.41,379.62
						 M401.41,377.2L219.92,558.69c46.47,46.47,110.62,75.25,181.49,75.39L401.41,377.2L401.41,377.2z"/>
				</g>
				<g id="bg_ring_6">
					<path class="st4" d="M401.95,135.83L401.95,135.83c64.17,0,124.5,24.92,169.95,70.19L401.95,375.96V135.83z"/>
					<path d="M402.45,136.33c32.27,0.06,63.58,6.42,93.05,18.89c28.31,11.98,53.77,29.06,75.68,50.8L402.45,374.75L402.45,136.33
						 M401.95,135.33c-0.17,0-0.34,0.01-0.5,0.01l0,241.83L572.6,206.01C528.93,162.34,468.59,135.33,401.95,135.33L401.95,135.33z"/>
					<path class="st4" d="M231.51,206.52c45.26-45.34,105.39-70.43,169.44-70.69l0,240.12L231.51,206.52z"/>
					<path d="M400.45,136.34l0,238.41L232.22,206.52c21.88-21.83,47.32-39.01,75.64-51.07C337.18,142.96,368.33,136.54,400.45,136.34
						 M401.45,135.34c-66.7,0.14-127.04,27.33-170.64,71.19l170.64,170.64L401.45,135.34L401.45,135.34z"/>
					<path class="st4" d="M402.65,377.67h240.12c-0.26,64.05-25.35,124.18-70.69,169.44L402.65,377.67z"/>
					<path d="M642.27,378.17c-0.2,32.12-6.63,63.27-19.11,92.59c-12.06,28.32-29.24,53.76-51.07,75.64L403.86,378.17L642.27,378.17
						 M643.28,377.17l-241.83,0l170.64,170.64C615.95,504.21,643.14,443.87,643.28,377.17L643.28,377.17z"/>
					<path class="st4" d="M161.12,376.67L161.12,376.67c0-63.89,24.75-124.04,69.69-169.44l169.43,169.44H161.12z"/>
					<path d="M230.81,207.94l168.23,168.23l-237.42,0c0.06-32.14,6.37-63.34,18.75-92.72C192.25,255.23,209.22,229.83,230.81,207.94
						 M230.8,206.52c-43.38,43.63-70.19,103.75-70.19,170.14c0,0.17,0.01,0.34,0.01,0.5l240.82,0L230.8,206.52L230.8,206.52z"/>
					<path class="st4" d="M402.65,376.67L572.6,206.72c45.27,45.45,70.19,105.78,70.19,169.94v0H402.65z"/>
					<path d="M572.6,207.43c21.74,21.91,38.82,47.37,50.8,75.68c12.47,29.48,18.82,60.78,18.89,93.05l-238.42,0L572.6,207.43
						 M572.6,206.01L401.45,377.17l241.83,0c0-0.17,0.01-0.34,0.01-0.5C643.28,310.02,616.27,249.69,572.6,206.01L572.6,206.01z"/>
					<path class="st4" d="M401.95,617.5V378.37l169.43,169.44C525.99,592.75,465.84,617.5,401.95,617.5L401.95,617.5z"/>
					<path d="M402.45,379.58l168.23,168.23c-21.89,21.59-47.29,38.56-75.51,50.44c-29.38,12.38-60.57,18.68-92.72,18.75L402.45,379.58
						 M401.45,377.17l0,240.82c0.17,0,0.34,0.01,0.5,0.01c66.39,0,126.51-26.81,170.14-70.19L401.45,377.17L401.45,377.17z"/>
					<path class="st4" d="M231.3,546.61c-45.01-45.19-69.92-105.15-70.18-168.94h239.12L231.3,546.61z"/>
					<path d="M161.63,378.17l237.41,0L231.3,545.9c-21.68-21.85-38.73-47.24-50.71-75.47C168.2,441.2,161.82,410.17,161.63,378.17
						 M160.62,377.17c0.14,66.44,27.12,126.58,70.68,170.15l170.15-170.15L160.62,377.17L160.62,377.17z"/>
					<path class="st4" d="M400.95,617.49c-63.78-0.26-123.75-25.17-168.94-70.18l168.94-168.94L400.95,617.49z"/>
					<path d="M400.45,379.58l0,237.41c-32-0.19-63.03-6.58-92.26-18.97c-28.23-11.97-53.61-29.03-75.47-50.71L400.45,379.58
							 M401.45,377.17L231.3,547.31c43.56,43.56,103.7,70.54,170.15,70.68L401.45,377.17L401.45,377.17z"/>
				</g>
				<g id="bg_ring_5">
					<path class="st4" d="M402.03,177.66c52.96,0.02,102.75,20.59,140.28,57.93L402.03,375.87L402.03,177.66z"/>
					<path d="M402.53,178.16c26.59,0.08,52.39,5.32,76.68,15.6c23.33,9.87,44.32,23.94,62.39,41.84L402.53,374.67L402.53,178.16
						 M401.95,177.16c-0.14,0-0.28,0-0.42,0.01l0,199.91l141.49-141.49C506.92,199.49,457.04,177.16,401.95,177.16L401.95,177.16z"/>
					<path class="st4" d="M261.17,236.01c37.37-37.41,87-58.11,139.86-58.35v198.21L261.17,236.01z"/>
					<path d="M400.53,178.17l0,196.5L261.88,236.01c18.04-17.97,39.01-32.12,62.35-42.06C348.4,183.66,374.07,178.35,400.53,178.17
						 M401.53,177.17c-55.14,0.11-105.02,22.59-141.07,58.85l141.07,141.06L401.53,177.17L401.53,177.17z"/>
					<path class="st4" d="M402.74,377.58h198.21c-0.24,52.86-20.94,102.49-58.35,139.86L402.74,377.58z"/>
					<path d="M600.44,378.08c-0.18,26.47-5.49,52.13-15.79,76.3c-9.94,23.34-24.09,44.31-42.06,62.35L403.95,378.08L600.44,378.08
						 M601.45,377.08l-199.91,0L542.6,518.15C578.85,482.1,601.33,432.22,601.45,377.08L601.45,377.08z"/>
					<path class="st4" d="M202.95,376.58c0.02-52.73,20.45-102.38,57.52-139.86l139.86,139.86H202.95z"/>
					<path d="M260.47,237.43l138.65,138.65l-195.67,0c0.08-26.49,5.28-52.19,15.48-76.41C228.73,276.42,242.7,255.49,260.47,237.43
						 M260.47,236.01c-35.86,36.07-58.02,85.77-58.02,140.65c0,0.14,0,0.28,0.01,0.42l199.08,0L260.47,236.01L260.47,236.01z"/>
					<path class="st4" d="M402.74,376.58L543.02,236.3c37.34,37.53,57.91,87.32,57.93,140.28H402.74z"/>
					<path d="M543.02,237.01c17.89,18.07,31.97,39.06,41.84,62.39c10.28,24.29,15.52,50.09,15.6,76.68l-196.5,0L543.02,237.01
						 M543.02,235.59L401.53,377.08l199.91,0c0-0.14,0.01-0.28,0.01-0.42C601.45,321.57,579.12,271.7,543.02,235.59L543.02,235.59z"/>
					<path class="st4" d="M402.03,378.29l139.86,139.86c-37.48,37.08-87.13,57.5-139.86,57.52L402.03,378.29z"/>
					<path d="M402.53,379.49l138.65,138.65c-18.05,17.77-38.99,31.74-62.24,41.54c-24.22,10.2-49.92,15.41-76.41,15.48L402.53,379.49
						 M401.53,377.08l0,199.08c0.14,0,0.28,0.01,0.42,0.01c54.88,0,104.58-22.16,140.65-58.02L401.53,377.08L401.53,377.08z"/>
					<path class="st4" d="M260.88,517.03c-37.13-37.31-57.69-86.8-57.93-139.45h197.37L260.88,517.03z"/>
					<path d="M203.46,378.08l195.66,0L260.88,516.32c-17.85-18.02-31.89-38.95-41.76-62.21C208.91,430.02,203.64,404.45,203.46,378.08
						 M202.45,377.08c0.11,54.93,22.42,104.64,58.43,140.65l140.65-140.65L202.45,377.08L202.45,377.08z"/>
					<path class="st4" d="M401.03,575.66c-52.64-0.24-102.13-20.79-139.45-57.93l139.45-139.45V575.66z"/>
					<path d="M400.53,379.49l0,195.66c-26.37-0.18-51.94-5.45-76.03-15.67c-23.26-9.86-44.19-23.91-62.21-41.76L400.53,379.49
						 M401.53,377.08L260.88,517.73c36.01,36.01,85.73,58.32,140.65,58.43L401.53,377.08L401.53,377.08z"/>
				</g>
				<g id="bg_ring_4">
					<path class="st3" d="M401.96,143.87c62.01,0,120.32,24.09,164.24,67.83L401.96,375.94V143.87z"/>
					<path d="M402.46,144.37c31.18,0.07,61.42,6.21,89.9,18.25c27.36,11.57,51.95,28.08,73.13,49.08L402.46,374.74L402.46,144.37
						 M401.95,143.37c-0.16,0-0.32,0.01-0.49,0.01l0,233.77L566.91,211.7C524.69,169.49,466.37,143.37,401.95,143.37L401.95,143.37z"
						/>
					<path class="st3" d="M237.21,212.19c43.74-43.81,101.85-68.06,163.75-68.31v232.06L237.21,212.19z"/>
					<path d="M400.46,144.38l0,230.35L237.92,212.19c21.14-21.09,45.72-37.68,73.08-49.34C339.34,150.79,369.43,144.58,400.46,144.38
							 M401.46,143.38c-64.48,0.13-122.81,26.42-164.96,68.82l164.96,164.95L401.46,143.38L401.46,143.38z"/>
					<path class="st3" d="M402.67,377.65h232.06c-0.26,61.9-24.5,120.01-68.31,163.75L402.67,377.65z"/>
					<path d="M634.23,378.15c-0.19,31.03-6.41,61.13-18.47,89.46c-11.65,27.36-28.25,51.94-49.34,73.08L403.88,378.15L634.23,378.15
						 M635.23,377.15l-233.77,0l164.95,164.96C608.81,499.96,635.1,441.63,635.23,377.15L635.23,377.15z"/>
					<path class="st3" d="M169.16,376.65c0-61.75,23.92-119.87,67.35-163.75l163.75,163.75H169.16z"/>
					<path d="M236.51,213.61l162.54,162.54l-229.39,0c0.07-31.06,6.16-61.19,18.12-89.58C199.27,259.31,215.66,234.77,236.51,213.61
						 M236.51,212.2c-41.93,42.18-67.85,100.29-67.85,164.47c0,0.16,0.01,0.32,0.01,0.49l232.8,0L236.51,212.2L236.51,212.2z"/>
					<path class="st3" d="M402.67,376.65l164.24-164.24c43.74,43.92,67.83,102.23,67.83,164.24H402.67z"/>
					<path d="M566.91,213.12c21,21.17,37.51,45.77,49.08,73.13c12.05,28.48,18.19,58.73,18.25,89.9l-230.36,0L566.91,213.12
						 M566.91,211.7L401.46,377.15l233.77,0c0-0.16,0.01-0.32,0.01-0.49C635.24,312.24,609.13,253.92,566.91,211.7L566.91,211.7z"/>
					<path class="st3" d="M401.96,378.36L565.71,542.1c-43.87,43.43-102,67.35-163.75,67.35V378.36z"/>
					<path d="M402.46,379.56L565,542.1c-21.15,20.85-45.69,37.25-72.96,48.73c-28.39,11.96-58.53,18.05-89.58,18.12L402.46,379.56
						 M401.46,377.15l0,232.8c0.16,0,0.32,0.01,0.49,0.01c64.17,0,122.29-25.92,164.47-67.85L401.46,377.15L401.46,377.15z"/>
					<path class="st3" d="M236.99,540.92c-43.5-43.68-67.57-101.62-67.82-163.27h231.09L236.99,540.92z"/>
					<path d="M169.67,378.15l229.38,0L236.99,540.21c-20.94-21.12-37.42-45.65-48.98-72.92C176.03,439.05,169.86,409.07,169.67,378.15
						 M168.67,377.15c0.13,64.23,26.21,122.36,68.32,164.47l164.47-164.47L168.67,377.15L168.67,377.15z"/>
					<path class="st3" d="M400.96,609.45c-61.65-0.25-119.59-24.33-163.27-67.82l163.27-163.27V609.45z"/>
					<path d="M400.46,379.56l0,229.38c-30.91-0.19-60.9-6.36-89.14-18.34c-27.27-11.57-51.8-28.04-72.92-48.98L400.46,379.56
							 M401.46,377.15L236.99,541.62c42.11,42.11,100.25,68.19,164.47,68.32L401.46,377.15L401.46,377.15z"/>
				</g>
				<g id="bg_ring_3">
					<path class="st4" d="M402.05,184.1c51.24,0.02,99.41,19.92,135.71,56.05L402.05,375.86V184.1z"/>
					<path d="M402.55,184.6c25.72,0.08,50.67,5.15,74.16,15.09c22.57,9.54,42.86,23.15,60.34,40.46L402.55,374.65L402.55,184.6
						 M401.95,183.6c-0.13,0-0.27,0-0.4,0.01l0,193.47l136.92-136.92C503.53,205.21,455.26,183.6,401.95,183.6L401.95,183.6z"/>
					<path class="st4" d="M265.74,240.55c36.15-36.18,84.17-56.21,135.31-56.45v191.76L265.74,240.55z"/>
					<path d="M400.55,184.61l0,190.05l-134.1-134.1c17.45-17.38,37.74-31.06,60.31-40.67C350.13,189.92,374.95,184.79,400.55,184.61
						 M401.55,183.6c-53.36,0.11-101.63,21.86-136.51,56.95l136.51,136.51L401.55,183.6L401.55,183.6z"/>
					<path class="st4" d="M402.75,377.57h191.76c-0.23,51.14-20.27,99.15-56.45,135.31L402.75,377.57z"/>
					<path d="M594.01,378.07c-0.18,25.6-5.32,50.42-15.27,73.79c-9.61,22.57-23.29,42.85-40.67,60.31l-134.1-134.1L594.01,378.07
						 M595.01,377.07l-193.47,0l136.51,136.51C573.15,478.7,594.9,430.43,595.01,377.07L595.01,377.07z"/>
					<path class="st4" d="M209.38,376.57c0.02-51.02,19.78-99.04,55.65-135.31l135.31,135.31H209.38z"/>
					<path d="M265.04,241.97l134.1,134.1l-189.25,0C210.04,325.54,229.6,277.98,265.04,241.97 M265.03,240.55
						c-34.7,34.91-56.15,83-56.15,136.11c0,0.13,0,0.27,0.01,0.4l192.66,0L265.03,240.55L265.03,240.55z"/>
					<path class="st4" d="M402.75,376.57l135.71-135.71c36.13,36.31,56.02,84.48,56.05,135.71H402.75z"/>
					<path d="M538.47,241.56c17.3,17.48,30.91,37.78,40.46,60.34c9.94,23.5,15.01,48.45,15.09,74.16l-190.06,0L538.47,241.56
						 M538.47,240.14L401.55,377.07l193.47,0c0-0.13,0.01-0.27,0.01-0.4C595.02,323.35,573.41,275.08,538.47,240.14L538.47,240.14z"/>
					<path class="st4" d="M402.05,378.27l135.31,135.31c-36.26,35.87-84.29,55.63-135.31,55.65V378.27z"/>
					<path d="M402.55,379.48l134.1,134.1c-36.01,35.44-83.57,55-134.1,55.15L402.55,379.48 M401.55,377.07l0,192.66
						c0.13,0,0.27,0.01,0.4,0.01c53.11,0,101.21-21.45,136.11-56.15L401.55,377.07L401.55,377.07z"/>
					<path class="st4" d="M265.43,512.47c-35.92-36.1-55.81-83.97-56.04-134.91h190.95L265.43,512.47z"/>
					<path d="M209.89,378.07l189.24,0l-133.7,133.7c-17.26-17.43-30.84-37.67-40.38-60.17C215.17,428.3,210.07,403.57,209.89,378.07
						 M208.89,377.07c0.11,53.15,21.69,101.27,56.54,136.12l136.12-136.12L208.89,377.07L208.89,377.07z"/>
					<path class="st4" d="M401.05,569.22c-50.93-0.23-98.8-20.12-134.91-56.04l134.91-134.91V569.22z"/>
					<path d="M400.55,379.48l0,189.24c-25.5-0.18-50.23-5.28-73.53-15.16c-22.5-9.54-42.74-23.12-60.17-40.38L400.55,379.48
							 M401.55,377.07L265.43,513.18c34.85,34.85,82.96,56.43,136.12,56.54L401.55,377.07L401.55,377.07z"/>
				</g>
				<g id="bg_ring_2">
					<path class="st6" d="M402.18,248.45c33.99,0.06,65.95,13.26,90.07,37.2l-90.07,90.07V248.45z"/>
					<path d="M402.68,248.95c33.51,0.19,65,13.19,88.86,36.7l-88.86,88.86L402.68,248.95 M401.95,247.95c-0.09,0-0.18,0-0.27,0
						l0,128.98l91.28-91.28C469.67,262.36,437.49,247.95,401.95,247.95L401.95,247.95z"/>
					<path class="st6" d="M311.38,285.92c24.02-23.98,55.87-37.27,89.8-37.46v127.27L311.38,285.92z"/>
					<path d="M400.68,248.96l0,125.56l-88.59-88.59C335.85,262.38,367.24,249.28,400.68,248.96 M401.68,247.96
						c-35.57,0.07-67.76,14.58-91.01,37.97l91.01,91.01L401.68,247.96L401.68,247.96z"/>
					<path class="st6" d="M402.89,377.43h127.27c-0.2,33.93-13.49,65.79-37.46,89.8L402.89,377.43z"/>
					<path d="M529.65,377.93c-0.32,33.44-13.42,64.83-36.96,88.59l-88.59-88.59L529.65,377.93 M530.66,376.93l-128.98,0l91.01,91.01
						C516.08,444.69,530.59,412.5,530.66,376.93L530.66,376.93z"/>
					<path class="st6" d="M273.74,376.43c0.06-33.85,13.17-65.71,36.94-89.8l89.8,89.8H273.74z"/>
					<path d="M310.68,287.34l88.59,88.59l-125.03,0C274.43,342.57,287.34,311.18,310.68,287.34 M310.67,285.92
						c-23.13,23.27-37.43,55.33-37.43,90.74c0,0.09,0,0.18,0,0.27l128.44,0L310.67,285.92L310.67,285.92z"/>
					<path class="st6" d="M402.89,376.43l90.07-90.07c23.94,24.12,37.14,56.08,37.2,90.07H402.89z"/>
					<path d="M492.96,287.07c23.51,23.87,36.51,55.36,36.7,88.86l-125.56,0L492.96,287.07 M492.96,285.65l-91.28,91.28l128.98,0
						c0-0.09,0-0.18,0-0.27C530.66,341.12,516.26,308.94,492.96,285.65L492.96,285.65z"/>
					<path class="st6" d="M402.18,378.14l89.8,89.8c-24.09,23.77-55.95,36.88-89.8,36.94V378.14z"/>
					<path d="M402.68,379.35l88.59,88.59c-23.83,23.34-55.23,36.25-88.59,36.44L402.68,379.35 M401.68,376.93l0,128.44
						c0.09,0,0.18,0,0.27,0c35.41,0,67.47-14.3,90.74-37.43L401.68,376.93L401.68,376.93z"/>
					<path class="st6" d="M310.94,466.97c-23.8-23.98-37-55.74-37.19-89.54h126.73L310.94,466.97z"/>
					<path d="M274.25,377.93l125.02,0l-88.33,88.33C287.57,442.53,274.57,411.24,274.25,377.93 M273.24,376.93
						c0.07,35.44,14.46,67.51,37.7,90.74l90.74-90.74L273.24,376.93L273.24,376.93z"/>
					<path class="st6" d="M401.18,504.87c-33.79-0.2-65.55-13.39-89.54-37.19l89.54-89.54V504.87z"/>
					<path d="M400.68,379.35l0,125.02c-33.3-0.32-64.6-13.32-88.33-36.69L400.68,379.35 M401.68,376.93l-90.74,90.74
							c23.23,23.23,55.31,37.62,90.74,37.7L401.68,376.93L401.68,376.93z"/>
				</g>
				<g id="bg_ring_1">
					<path class="st4" d="M402.2,258.14c31.4,0.06,60.91,12.26,83.2,34.36l-83.2,83.2V258.14z"/>
					<path d="M402.7,258.65c30.91,0.19,59.96,12.19,81.99,33.86L402.7,374.5L402.7,258.65 M401.95,257.64c-0.08,0-0.17,0-0.25,0
						l0,119.27l84.41-84.41C464.57,270.96,434.82,257.64,401.95,257.64L401.95,257.64z"/>
					<path class="st4" d="M318.25,292.75c22.19-22.14,51.61-34.41,82.95-34.61v117.56L318.25,292.75z"/>
					<path d="M400.7,258.65l0,115.85l-81.74-81.74C340.89,271.05,369.85,258.97,400.7,258.65 M401.7,257.65
						c-32.89,0.07-62.65,13.48-84.16,35.11l84.16,84.16L401.7,257.65L401.7,257.65z"/>
					<path class="st4" d="M402.91,377.41h117.56c-0.19,31.34-12.47,60.76-34.61,82.95L402.91,377.41z"/>
					<path d="M519.96,377.91c-0.32,30.85-12.4,59.81-34.1,81.74l-81.74-81.74L519.96,377.91 M520.97,376.91l-119.27,0l84.16,84.16
						C507.49,439.57,520.9,409.81,520.97,376.91L520.97,376.91z"/>
					<path class="st4" d="M283.43,376.41c0.06-31.26,12.17-60.69,34.12-82.95l82.95,82.95H283.43z"/>
					<path d="M317.55,294.17l81.74,81.74l-115.36,0C284.12,345.14,296.04,316.17,317.55,294.17 M317.54,292.75
						c-21.39,21.52-34.61,51.17-34.61,83.91c0,0.08,0,0.17,0,0.25l118.77,0L317.54,292.75L317.54,292.75z"/>
					<path class="st4" d="M402.91,376.41l83.2-83.2c22.1,22.29,34.3,51.8,34.36,83.2H402.91z"/>
					<path d="M486.11,293.92c21.67,22.03,33.67,51.08,33.86,81.99l-115.85,0L486.11,293.92 M486.11,292.5l-84.41,84.41l119.27,0
						c0-0.08,0-0.17,0-0.25C520.97,343.8,507.65,314.04,486.11,292.5L486.11,292.5z"/>
					<path class="st4" d="M402.2,378.12l82.95,82.95c-22.26,21.95-51.69,34.05-82.95,34.12V378.12z"/>
					<path d="M402.7,379.33l81.74,81.74c-22,21.51-50.96,33.43-81.74,33.62L402.7,379.33 M401.7,376.91l0,118.77c0.08,0,0.17,0,0.25,0
						c32.74,0,62.39-13.22,83.91-34.61L401.7,376.91L401.7,376.91z"/>
					<path class="st4" d="M317.79,460.12c-21.98-22.16-34.16-51.49-34.36-82.7h117.06L317.79,460.12z"/>
					<path d="M283.94,377.91l115.35,0l-81.49,81.49C296.25,437.5,284.26,408.64,283.94,377.91 M282.93,376.91
						c0.07,32.77,13.37,62.43,34.86,83.91l83.91-83.91L282.93,376.91L282.93,376.91z"/>
					<path class="st4" d="M401.2,495.18c-31.21-0.19-60.54-12.38-82.7-34.36l82.7-82.7V495.18z"/>
					<path d="M400.7,379.33l0,115.35c-30.72-0.32-59.59-12.31-81.49-33.85L400.7,379.33 M401.7,376.91l-83.91,83.91
							c21.48,21.48,51.14,34.79,83.91,34.86L401.7,376.91L401.7,376.91z"/>
				</g>
				<circle id="bg_center" class="st7" cx="401.63" cy="377.63" r="99.75"/>
				<text transform="matrix(1.06 0 0 1 336.0981 390.3491)" class="st4 st8 st9">B</text>
				<text transform="matrix(0.742 0 0 0.7 359.5996 390.3491)" class="st4 st8 st9">uilders</text>
			</g>
		</g>
	<defs>
</svg>
